<svg width="20" height="20" viewBox="0 0 20 20" fill="none" xmlns="http://www.w3.org/2000/svg">
<path d="M17.9179 14.9997L12.3823 9.99967M7.62035 9.99967L2.08466 14.9997M1.66797 5.83301L8.47207 10.5959C9.02304 10.9816 9.29853 11.1744 9.59819 11.2491C9.86288 11.3151 10.1397 11.3151 10.4044 11.2491C10.7041 11.1744 10.9796 10.9816 11.5305 10.5959L18.3346 5.83301M5.66797 16.6663H14.3346C15.7348 16.6663 16.4348 16.6663 16.9696 16.3939C17.44 16.1542 17.8225 15.7717 18.0622 15.3013C18.3346 14.7665 18.3346 14.0665 18.3346 12.6663V7.33301C18.3346 5.93288 18.3346 5.23281 18.0622 4.69803C17.8225 4.22763 17.44 3.84517 16.9696 3.60549C16.4348 3.33301 15.7348 3.33301 14.3346 3.33301H5.66797C4.26784 3.33301 3.56777 3.33301 3.03299 3.60549C2.56259 3.84517 2.18014 4.22763 1.94045 4.69803C1.66797 5.23281 1.66797 5.93288 1.66797 7.33301V12.6663C1.66797 14.0665 1.66797 14.7665 1.94045 15.3013C2.18014 15.7717 2.56259 16.1542 3.03299 16.3939C3.56777 16.6663 4.26784 16.6663 5.66797 16.6663Z" stroke="white" stroke-width="1.5" stroke-linecap="round" stroke-linejoin="round"/>
</svg>
