<svg width="64" height="64" viewBox="0 0 64 64" fill="none" xmlns="http://www.w3.org/2000/svg">
<circle cx="32" cy="32" r="31" stroke="black" stroke-width="2"/>
<circle cx="32" cy="32" r="31" stroke="#548B81" stroke-width="2"/>
<g clip-path="url(#clip0_171_5005)">
<path d="M33.0006 32.5358C32.7047 32.5358 32.4648 32.2959 32.4648 32.0001C32.4648 31.7042 32.7047 31.4644 33.0006 31.4644" stroke="black" stroke-linecap="round" stroke-linejoin="round"/>
<path d="M33.0006 32.5358C32.7047 32.5358 32.4648 32.2959 32.4648 32.0001C32.4648 31.7042 32.7047 31.4644 33.0006 31.4644" stroke="#548B81" stroke-linecap="round" stroke-linejoin="round"/>
<path d="M33 32.5358C33.2959 32.5358 33.5357 32.2959 33.5357 32.0001C33.5357 31.7042 33.2959 31.4644 33 31.4644" stroke="black" stroke-linecap="round" stroke-linejoin="round"/>
<path d="M33 32.5358C33.2959 32.5358 33.5357 32.2959 33.5357 32.0001C33.5357 31.7042 33.2959 31.4644 33 31.4644" stroke="#548B81" stroke-linecap="round" stroke-linejoin="round"/>
<path d="M27.1099 32.5358C26.8141 32.5358 26.5742 32.2959 26.5742 32.0001C26.5742 31.7042 26.8141 31.4644 27.1099 31.4644" stroke="black" stroke-linecap="round" stroke-linejoin="round"/>
<path d="M27.1099 32.5358C26.8141 32.5358 26.5742 32.2959 26.5742 32.0001C26.5742 31.7042 26.8141 31.4644 27.1099 31.4644" stroke="#548B81" stroke-linecap="round" stroke-linejoin="round"/>
<path d="M27.1094 32.5358C27.4052 32.5358 27.6451 32.2959 27.6451 32.0001C27.6451 31.7042 27.4052 31.4644 27.1094 31.4644" stroke="black" stroke-linecap="round" stroke-linejoin="round"/>
<path d="M27.1094 32.5358C27.4052 32.5358 27.6451 32.2959 27.6451 32.0001C27.6451 31.7042 27.4052 31.4644 27.1094 31.4644" stroke="#548B81" stroke-linecap="round" stroke-linejoin="round"/>
<path d="M38.8951 32.5358C38.5992 32.5358 38.3594 32.2959 38.3594 32.0001C38.3594 31.7042 38.5992 31.4644 38.8951 31.4644" stroke="black" stroke-linecap="round" stroke-linejoin="round"/>
<path d="M38.8951 32.5358C38.5992 32.5358 38.3594 32.2959 38.3594 32.0001C38.3594 31.7042 38.5992 31.4644 38.8951 31.4644" stroke="#548B81" stroke-linecap="round" stroke-linejoin="round"/>
<path d="M38.8945 32.5358C39.1904 32.5358 39.4304 32.2959 39.4304 32.0001C39.4304 31.7042 39.1904 31.4644 38.8945 31.4644" stroke="black" stroke-linecap="round" stroke-linejoin="round"/>
<path d="M38.8945 32.5358C39.1904 32.5358 39.4304 32.2959 39.4304 32.0001C39.4304 31.7042 39.1904 31.4644 38.8945 31.4644" stroke="#548B81" stroke-linecap="round" stroke-linejoin="round"/>
<path d="M32.9944 18.2012C30.4983 18.202 28.0492 18.8797 25.9079 20.1624C23.7666 21.445 22.0133 23.2844 20.8347 25.4847C19.6561 27.685 19.0964 30.1637 19.2152 32.657C19.334 35.1502 20.1269 37.5645 21.5093 39.6427L19.1953 45.7994L26.944 44.3981C28.8099 45.3099 30.8575 45.7889 32.9342 45.7991C35.0109 45.8094 37.0631 45.3509 38.9379 44.4575C40.8127 43.5644 42.4618 42.2594 43.7619 40.64C45.0622 39.0209 45.9804 37.1289 46.4475 35.1055C46.9149 33.082 46.9196 30.9791 46.461 28.9537C46.0025 26.9282 45.0928 25.0323 43.7996 23.4074C42.5064 21.7824 40.863 20.4704 38.9922 19.5689C37.1213 18.6675 35.0711 18.1999 32.9944 18.2012Z" stroke="black" stroke-width="2" stroke-linecap="round" stroke-linejoin="round"/>
<path d="M32.9944 18.2012C30.4983 18.202 28.0492 18.8797 25.9079 20.1624C23.7666 21.445 22.0133 23.2844 20.8347 25.4847C19.6561 27.685 19.0964 30.1637 19.2152 32.657C19.334 35.1502 20.1269 37.5645 21.5093 39.6427L19.1953 45.7994L26.944 44.3981C28.8099 45.3099 30.8575 45.7889 32.9342 45.7991C35.0109 45.8094 37.0631 45.3509 38.9379 44.4575C40.8127 43.5644 42.4618 42.2594 43.7619 40.64C45.0622 39.0209 45.9804 37.1289 46.4475 35.1055C46.9149 33.082 46.9196 30.9791 46.461 28.9537C46.0025 26.9282 45.0928 25.0323 43.7996 23.4074C42.5064 21.7824 40.863 20.4704 38.9922 19.5689C37.1213 18.6675 35.0711 18.1999 32.9944 18.2012Z" stroke="#548B81" stroke-width="2" stroke-linecap="round" stroke-linejoin="round"/>
</g>
<defs>
<clipPath id="clip0_171_5005">
<rect width="30" height="30" fill="white" transform="translate(18 17)"/>
</clipPath>
</defs>
</svg>
