<svg width="13" height="32" viewBox="0 0 13 32" fill="none" xmlns="http://www.w3.org/2000/svg">
<g clip-path="url(#clip0_171_4869)">
<path d="M10.3646 20.8059L10.3593 29.9956C10.1922 31.9002 7.87196 32.6896 6.53832 31.2865C5.25684 32.6564 3.00916 31.9297 2.71959 30.1411L2.71657 20.8023C1.3164 20.721 0.203514 19.7927 0.0757441 18.3978C0.254168 15.9659 -0.171479 13.1929 0.0840604 10.8017C0.319187 8.60176 2.57141 7.56271 4.64446 7.88026C5.22585 7.96962 5.7082 8.40606 6.54059 8.39868C7.37298 8.39129 7.8009 7.96592 8.35885 7.88026C10.4735 7.5568 12.7166 8.63056 12.9268 10.8674C13.1559 13.3022 12.765 16.0693 12.92 18.5388C12.7113 19.8378 11.6809 20.6819 10.3654 20.8067L10.3646 20.8059ZM10.357 19.6908C11.1274 19.7396 11.7731 19.0247 11.8608 18.3165C11.7345 15.994 12.0574 13.4558 11.8721 11.1584C11.7708 9.90149 10.9188 9.05076 9.62974 8.91783C8.3407 8.7849 7.56123 9.50271 6.23364 9.42886C5.17822 9.37052 4.55071 8.81149 3.44085 8.90971C2.21608 9.01826 1.27406 9.79663 1.14326 11.0225C0.896797 13.3317 1.29145 16.0302 1.15385 18.3793C1.25742 19.0875 1.95524 19.7795 2.72186 19.6908V15.7399C2.72186 15.7119 2.97967 15.4903 3.04393 15.463C3.36147 15.3279 3.6669 15.5132 3.77804 15.816L3.77955 29.9196C3.9111 31.1189 5.52524 31.3094 5.95617 30.1995L5.96978 23.7887C6.02271 23.0029 7.05469 23.0022 7.10761 23.7887L7.14088 30.2541C7.54082 31.2045 8.90395 31.1447 9.24719 30.1655L9.29406 15.8847C9.38781 15.1794 10.3563 15.415 10.3563 15.8145V19.6916L10.357 19.6908Z" fill="white"/>
<path d="M10.5325 3.93686C10.5325 6.11096 8.72786 7.87372 6.5021 7.87372C4.27633 7.87372 2.47168 6.11096 2.47168 3.93686C2.47168 1.76276 4.27633 0 6.5021 0C8.72786 0 10.5325 1.76276 10.5325 3.93686ZM9.45138 3.9376C9.45138 2.34616 8.13059 1.05603 6.50134 1.05603C4.87209 1.05603 3.5513 2.34616 3.5513 3.9376C3.5513 5.52903 4.87209 6.81916 6.50134 6.81916C8.13059 6.81916 9.45138 5.52903 9.45138 3.9376Z" fill="white"/>
</g>
<defs>
<clipPath id="clip0_171_4869">
<rect width="13" height="32" fill="white"/>
</clipPath>
</defs>
</svg>
