<svg width="58" height="57" viewBox="0 0 58 57" fill="none" xmlns="http://www.w3.org/2000/svg">
<g clip-path="url(#clip0_171_3552)">
<path d="M38.7609 17.8108C38.7609 27.6478 30.7023 35.6216 20.7624 35.6216C10.8226 35.6216 2.76392 27.6478 2.76392 17.8108C2.76392 7.97376 10.8226 0 20.7624 0C30.7023 0 38.7609 7.97459 38.7609 17.8108ZM36.3879 17.8108C36.3879 9.27139 29.3926 2.34904 20.7632 2.34904C12.1339 2.34904 5.13855 9.27139 5.13855 17.8108C5.13855 26.3502 12.1339 33.2725 20.7632 33.2725C29.3926 33.2725 36.3879 26.3502 36.3879 17.8108Z" fill="#548B81"/>
<path d="M58 39.1526H55.5623V33.9954C52.0285 37.3767 48.1577 40.372 43.8505 42.7435C30.5399 50.0726 14.2756 51.2671 0.00756836 45.8828L0.801076 43.6419C2.99583 44.4787 5.26624 45.1691 7.56438 45.6832C24.3087 49.4272 42.1761 44.2366 54.0493 32.0822H48.4174V29.6699H57.8739L58 29.7947V39.1526Z" fill="#548B81"/>
<path d="M49.5942 45.4746V53.46H47.1565V49.6337C46.0579 50.1519 45.0072 50.7633 43.9085 51.2857C30.271 57.7646 14.4075 58.767 0 54.1246L0.673304 51.8796C2.51417 52.3762 4.33823 52.9443 6.20516 53.351C18.6197 56.0561 31.7621 54.5314 43.1528 49.0398L49.595 45.4746H49.5942Z" fill="#548B81"/>
<path d="M21.9391 8.29248V10.7047H25.5536V13.0338H18.1145C17.7018 13.0338 17.2109 13.6768 17.1554 14.0811C17.0301 14.9902 17.0024 16.475 18.1985 16.6106C20.848 16.9101 24.9072 15.6049 26.3698 18.5895C27.028 19.9337 26.917 22.4932 25.9251 23.6735C25.5267 24.1477 24.2827 24.9287 23.6631 24.9287H21.94V27.341H19.5863V24.9287H14.795V22.5997H23.3269C23.6278 22.5997 24.1532 22.1663 24.2717 21.871C24.4171 21.5083 24.4398 20.3097 24.3583 19.9154C24.2667 19.4712 23.7825 19.0603 23.3311 19.0187C20.5656 18.7667 16.34 20.0418 15.0321 16.7504C14.6336 15.7472 14.6673 13.6469 15.1414 12.6695C15.5373 11.8551 16.8385 10.7047 17.7791 10.7047H19.5863V8.29248H21.94H21.9391Z" fill="#548B81"/>
</g>
<defs>
<clipPath id="clip0_171_3552">
<rect width="58" height="57" fill="white"/>
</clipPath>
</defs>
</svg>
