<svg width="59" height="59" viewBox="0 0 59 59" fill="none" xmlns="http://www.w3.org/2000/svg">
<path d="M0.649902 22.5444C-3.32194 3.82674 20.0241 -7.62991 32.3325 6.53467C36.9624 11.8629 37.9289 19.3026 35.3081 25.7886L57.8003 48.189L57.8091 48.1978L57.9927 48.4155C58.1491 48.6117 58.3049 48.843 58.394 49.0903L58.439 49.2407C58.4969 49.4894 58.5358 49.9873 58.561 50.5884C58.5866 51.197 58.599 51.9322 58.6011 52.6704C58.6053 54.1415 58.5668 55.6454 58.5005 56.1812C58.3847 57.1149 57.711 57.7542 56.8745 58.0034L56.7056 58.0483C56.2634 58.15 55.0048 58.3106 53.7729 58.4321C53.1541 58.4932 52.5366 58.545 52.0249 58.5747C51.5215 58.6039 51.0993 58.6133 50.8843 58.5835H50.8833C50.3793 58.5123 50.0236 58.2475 49.6831 57.979L49.4771 57.8081C48.9168 57.326 47.8246 56.286 46.7749 55.2427C46.1731 54.6445 45.5821 54.0409 45.1079 53.5356C44.7568 53.1615 44.4609 52.8328 44.2749 52.5972L44.1274 52.394C43.6894 51.7092 43.6789 50.9922 43.7544 50.3013C43.7912 49.9644 43.8534 49.603 43.896 49.2749C43.9303 49.0108 43.9533 48.7519 43.9526 48.4966C43.7495 48.5254 43.5355 48.5636 43.311 48.605C43.0107 48.6604 42.6932 48.7166 42.3804 48.7378C41.7914 48.7777 41.1858 48.6956 40.6978 48.2329L40.6021 48.1353C40.563 48.0926 40.5121 48.0203 40.4644 47.9468C40.4138 47.8689 40.358 47.7758 40.3052 47.6841C40.2526 47.5927 40.2015 47.4999 40.1636 47.4214C40.1447 47.3824 40.1277 47.3434 40.1147 47.3091C40.1052 47.2837 40.0864 47.2322 40.0864 47.1792V44.1333C39.7187 44.1763 39.3724 44.2441 39.0356 44.3149C38.6376 44.3987 38.2455 44.4861 37.8608 44.5269C37.0737 44.6103 36.3055 44.4991 35.4595 43.813C35.19 43.594 34.4453 42.8719 33.7554 42.1519C33.4089 41.7902 33.0717 41.4247 32.812 41.1187C32.6824 40.966 32.5703 40.8255 32.4849 40.7065C32.4046 40.5949 32.3317 40.4797 32.3032 40.3843C32.1322 39.809 32.2084 39.131 32.3384 38.4907C32.404 38.1678 32.4854 37.8454 32.561 37.5425C32.6126 37.3357 32.6584 37.1376 32.6987 36.9526C32.453 36.9818 32.2005 37.0357 31.9399 37.0981C31.5933 37.1812 31.2224 37.2831 30.8618 37.353C30.1329 37.4944 29.3663 37.5231 28.6528 37.0249C28.5175 36.9303 28.3234 36.7383 28.1157 36.5229C27.9042 36.3036 27.6593 36.039 27.4243 35.7905C27.1866 35.5391 26.9567 35.3019 26.7661 35.1284C26.6706 35.0415 26.5892 34.9744 26.5249 34.9302C26.5035 34.9155 26.4846 34.9059 26.4702 34.8979C16.0954 39.9333 3.04772 33.8443 0.649902 22.5444ZM33.8511 22.8345C37.0542 11.2497 27.0335 0.566131 15.2251 2.88525C9.14808 4.07752 4.03421 9.17388 2.83643 15.2261C0.120183 28.9559 14.7162 39.0774 26.7397 32.106L26.8706 32.0308L26.979 32.1362L30.0298 35.0933C30.3622 35.0735 30.7373 34.9971 31.1421 34.9048C31.5725 34.8066 32.0353 34.6943 32.48 34.6421C32.925 34.5898 33.3744 34.5949 33.7788 34.7456C34.191 34.8992 34.5392 35.1975 34.7866 35.6968C35.1716 36.4739 35.0161 37.2561 34.8335 37.9331C34.7396 38.2813 34.6413 38.5913 34.5835 38.8901C34.5276 39.1793 34.5179 39.4275 34.5806 39.645C34.5825 39.6478 34.5846 39.6511 34.5874 39.6548C34.6039 39.6767 34.6297 39.7072 34.6636 39.7466C34.7309 39.8248 34.8256 39.9295 34.9409 40.0522C35.1714 40.2974 35.4771 40.6101 35.7886 40.9214C36.0999 41.2326 36.4162 41.5411 36.6675 41.7788C36.7933 41.8978 36.9017 41.9983 36.9849 42.0718C37.0265 42.1086 37.0605 42.1378 37.0864 42.1587C37.1055 42.174 37.116 42.1815 37.1196 42.1841L37.1792 42.2036C37.2078 42.2098 37.2456 42.2154 37.2944 42.2183C37.3879 42.2238 37.5046 42.2192 37.6411 42.2065C37.9143 42.1813 38.246 42.1241 38.5952 42.0591C38.9406 41.9947 39.3043 41.922 39.6274 41.8696C39.9469 41.8178 40.2495 41.7816 40.4712 41.7964C40.8464 41.8215 41.288 42.0103 41.6489 42.271C42.0065 42.5293 42.3297 42.8913 42.4106 43.2944L42.4409 43.479C42.4976 43.9219 42.4648 44.45 42.4312 44.9565C42.3967 45.4754 42.3602 45.9758 42.3931 46.395C42.6162 46.3813 42.8407 46.3476 43.0698 46.3071C43.3551 46.2567 43.655 46.1961 43.9468 46.1704C44.546 46.1178 45.1501 46.2066 45.7036 46.7866C46.3052 47.4171 46.3263 48.2375 46.2476 49.0112C46.2277 49.2063 46.2002 49.4022 46.1733 49.5942C46.1463 49.7877 46.1198 49.9769 46.0981 50.1626C46.0576 50.5101 46.0399 50.8323 46.0747 51.1235L51.3618 56.2632L56.1685 55.7808L56.1421 49.854L32.6118 26.3647L32.522 26.2759L32.564 26.1567C32.7641 25.584 33.0095 25.0325 33.2407 24.4897C33.4733 23.9437 33.6937 23.4027 33.8511 22.8345Z" fill="#548B80" stroke="#548B80" stroke-width="0.4"/>
<path d="M14.7153 7.71924C17.7974 7.71941 20.2963 10.2083 20.2964 13.2808C20.2964 16.352 17.7975 18.8421 14.7153 18.8423C11.633 18.8423 9.1333 16.3534 9.1333 13.2808C9.13339 10.2082 11.6331 7.71924 14.7153 7.71924ZM14.7134 10.0503C12.9174 10.0505 11.4616 11.5021 11.4614 13.2896C11.4614 15.0772 12.9173 16.5296 14.7134 16.5298C16.5097 16.5298 17.9663 15.0773 17.9663 13.2896C17.9661 11.5007 16.5096 10.0503 14.7134 10.0503Z" fill="#548B80" stroke="#548B80" stroke-width="0.4"/>
</svg>
