<svg width="90" height="57" viewBox="0 0 90 57" fill="none" xmlns="http://www.w3.org/2000/svg">
<g clip-path="url(#clip0_171_3562)">
<path d="M12.6895 30.2458L7.7488 28.4492C-6.82733 20.1144 0.866927 -2.47038 17.6166 0.226515C32.5872 2.63829 34.8545 23.2878 21.0849 29.1698L17.5736 30.2478H71.863L66.9223 28.4512C54.551 21.5205 57.6521 2.52698 71.8201 0.226515C88.5912 -2.49577 96.2894 20.1632 81.6879 28.4512L76.7471 30.2478H88.5619C89.4641 30.2478 90.2277 32.601 88.1831 32.7982L1.26531 32.7904C-0.73637 32.5561 0.0428201 30.2478 0.878643 30.2478H12.6934L12.6895 30.2458ZM27.7285 15.1952C27.7285 8.2508 22.0984 2.62072 15.154 2.62072C8.20967 2.62072 2.57958 8.2508 2.57958 15.1952C2.57958 22.1395 8.20967 27.7696 15.154 27.7696C22.0984 27.7696 27.7285 22.1395 27.7285 15.1952ZM86.8708 15.1971C86.8708 8.25276 81.2407 2.62267 74.2963 2.62267C67.352 2.62267 61.7219 8.25276 61.7219 15.1971C61.7219 22.1415 67.352 27.7716 74.2963 27.7716C81.2407 27.7716 86.8708 22.1415 86.8708 15.1971Z" fill="#548B81"/>
<path d="M61.7063 57.0001H27.7266L44.6207 32.98L61.7063 57.0001ZM32.804 54.4614H56.3359C56.9198 54.4614 56.2129 53.5377 56.0879 53.3424C52.6021 47.8998 48.378 42.8692 44.8121 37.4716L32.804 54.4614Z" fill="#548B81"/>
</g>
<defs>
<clipPath id="clip0_171_3562">
<rect width="89.4799" height="57" fill="white"/>
</clipPath>
</defs>
</svg>
