<svg width="59" height="63" viewBox="0 0 59 63" fill="none" xmlns="http://www.w3.org/2000/svg">
<path d="M29.2375 0.144531C29.4697 0.0658621 29.704 0.101029 29.9124 0.179688L30.1116 0.270508L30.1174 0.273438L36.8762 4.44824V3.39941C36.8763 3.18602 37.0211 2.98591 37.1887 2.8418C37.3587 2.69569 37.5779 2.58453 37.7688 2.56152C38.5952 2.46176 39.5164 2.50033 40.4329 2.54395C41.3532 2.58775 42.2695 2.63693 43.0989 2.56152L43.1106 2.56055L43.1223 2.5625C43.386 2.60135 43.597 2.71175 43.7483 2.88281C43.8989 3.05314 43.9841 3.2763 44.011 3.5293L44.012 3.53906L44.0452 8.92578L50.1926 12.7979L50.2024 12.8037L50.2112 12.8125C50.3895 12.9968 50.4831 13.2612 50.4924 13.5205C50.5016 13.7796 50.4267 14.0484 50.2502 14.2393V14.2402H50.2493C50.2395 14.2504 50.2245 14.2625 50.2141 14.2705C50.2006 14.2809 50.1828 14.2934 50.1633 14.3076C50.1243 14.336 50.0749 14.3712 50.0256 14.4053C49.9763 14.4394 49.9256 14.4736 49.886 14.499C49.8666 14.5114 49.8489 14.5229 49.8342 14.5312C49.827 14.5354 49.8185 14.5394 49.8108 14.543C49.8071 14.5447 49.802 14.5468 49.7961 14.5488C49.7924 14.5501 49.7779 14.5557 49.76 14.5557H45.2727V35.4795C45.2726 35.5678 45.2444 35.6638 45.2034 35.7549C45.1616 35.8474 45.1029 35.9415 45.0364 36.0283C44.9068 36.1974 44.7299 36.3574 44.5579 36.4062L44.5452 36.4102H44.5305L14.5608 36.4238H14.55L14.5403 36.4219C14.4592 36.4051 14.3761 36.3605 14.3 36.3066C14.2228 36.252 14.1465 36.183 14.0793 36.1084C14.0122 36.0337 13.9514 35.9505 13.9075 35.8691C13.8647 35.7898 13.8323 35.7021 13.8323 35.6191V14.5557H9.34399C9.32442 14.5556 9.30789 14.5502 9.30103 14.5479C9.29186 14.5447 9.2828 14.5399 9.27466 14.5361C9.2581 14.5284 9.23867 14.5181 9.21899 14.5068C9.1793 14.484 9.13104 14.4535 9.08325 14.4219C9.03533 14.3902 8.98622 14.357 8.94556 14.3271C8.90728 14.299 8.8699 14.2689 8.84888 14.2471H8.8479C8.42854 13.8063 8.49418 13.098 8.97388 12.7314L8.98169 12.7256L29.217 0.154297L29.2268 0.148438L29.2375 0.144531ZM13.2288 12.5312H14.5686C17.8479 10.5237 21.0952 8.40845 24.4436 6.52148L24.4631 6.50977L24.4856 6.50879C25.0135 6.47266 25.4142 6.77785 25.5696 7.17578C25.7255 7.57521 25.6338 8.06593 25.1936 8.38965L25.1858 8.39453L15.8528 14.0908V34.4326H24.1282V21.7217C24.1282 21.6759 24.1476 21.6315 24.1663 21.5977C24.1863 21.5614 24.2135 21.5236 24.2444 21.4863C24.3067 21.4112 24.3904 21.3301 24.4807 21.2578C24.5709 21.1856 24.6718 21.1186 24.7678 21.0742C24.8491 21.0367 24.9451 21.0087 25.0334 21.0244L34.2473 21.0576H34.2571L34.2668 21.0596C34.348 21.0763 34.4319 21.1209 34.5081 21.1748C34.5853 21.2295 34.6616 21.2985 34.7288 21.373C34.7959 21.4476 34.8557 21.5301 34.8997 21.6113C34.9425 21.6907 34.9747 21.7784 34.9749 21.8613V34.4326H43.1809V14.125L33.9866 8.46387L33.9788 8.45996V8.45898C33.4064 8.03521 33.3325 7.45951 33.5618 7.03809C33.7739 6.6481 34.2404 6.40508 34.7551 6.55469L34.8586 6.58984L34.8665 6.59277L34.8743 6.59766L44.5354 12.5303H45.8762L42.3215 10.2891C42.3011 10.2764 42.2823 10.2593 42.2678 10.2441C42.252 10.2276 42.2352 10.208 42.219 10.1875C42.1865 10.1465 42.1521 10.097 42.1204 10.0488C42.0885 10.0005 42.0586 9.95118 42.0364 9.91113C42.0255 9.89151 42.0155 9.8728 42.0081 9.85645C42.0044 9.84836 42.0003 9.83903 41.9973 9.83008C41.9952 9.82362 41.9895 9.80664 41.9895 9.78711V4.58789H38.968V6.34766C38.968 6.72374 38.742 7.03158 38.4456 7.2041C38.1497 7.37626 37.7691 7.42235 37.4436 7.25781L37.4368 7.25391C36.2521 6.54133 35.0863 5.79464 33.9211 5.05078C33.0468 4.49263 32.1724 3.9366 31.2903 3.39551L30.4055 2.86035C30.3561 2.83092 30.2775 2.78049 30.1887 2.72461C30.0989 2.66808 29.9967 2.60395 29.8958 2.54492C29.7944 2.48568 29.6967 2.43256 29.6165 2.39648C29.5762 2.37839 29.5418 2.36557 29.5159 2.3584C29.5059 2.35565 29.4986 2.35338 29.4934 2.35254L13.2288 12.5312ZM26.1497 34.4316H32.9543V23.0488H26.1497V34.4316Z" fill="#548B81" stroke="#548B81" stroke-width="0.2"/>
<path d="M5.57397 37.7065C6.90893 37.6554 8.24571 37.6093 9.51636 37.687L10.0564 37.728L10.1892 37.7427C10.229 37.7484 10.2653 37.7557 10.3005 37.7671C10.3734 37.7907 10.4368 37.8293 10.5222 37.8901L10.5789 37.9399C10.5988 37.9598 10.6193 37.9825 10.6394 38.0054C10.682 38.0539 10.7297 38.1121 10.7732 38.1704C10.8165 38.2285 10.8575 38.2886 10.8884 38.3403C10.9038 38.3661 10.9181 38.3913 10.9285 38.4146C10.9371 38.4339 10.95 38.4656 10.95 38.4985V42.7446C12.285 42.3022 13.6067 41.8102 14.9294 41.3159C16.2951 40.8056 17.6631 40.2945 19.0476 39.8403C20.4746 39.3723 21.4651 39.1847 22.4636 39.1636C23.4587 39.1425 24.4587 39.2873 25.8972 39.4771C29.2677 39.9219 32.9205 40.2306 36.2488 40.8306C37.5541 41.0659 38.477 41.6355 39.0564 42.4731C39.6343 43.3087 39.8618 44.3988 39.8044 45.6597C39.798 45.8043 39.7912 45.9588 39.8093 46.0942L51.822 38.6714C52.8269 38.0097 54.0478 37.7041 55.1667 37.8608C56.2896 38.0182 57.3088 38.6415 57.8953 39.8306C58.8175 41.7018 58.0473 43.6513 56.7595 45.354C55.4694 47.0598 53.6376 48.549 52.3708 49.521C49.0745 52.0504 45.3859 54.6321 41.9578 56.9937C40.3629 58.0922 38.9925 58.9316 36.9509 59.062L36.9441 59.063L10.95 59.0601V61.3813C10.95 61.4833 10.9049 61.5891 10.8445 61.6831C10.7827 61.7791 10.6976 61.873 10.6033 61.9546C10.5089 62.0362 10.4021 62.1084 10.2937 62.1567C10.1889 62.2034 10.0751 62.2302 9.96753 62.2173V62.2183C8.5744 62.1236 7.09774 62.186 5.6189 62.2417C4.14269 62.2973 2.66422 62.3464 1.2771 62.2212C1.01625 62.1977 0.788479 62.1288 0.599365 61.9995C0.409568 61.8697 0.265274 61.6833 0.163818 61.436L0.156006 61.4175V61.3979L0.100342 38.8462V38.8423C0.119301 38.3164 0.507032 37.7973 1.06519 37.73L1.07397 37.729L1.08374 37.73C2.51971 37.8309 4.04577 37.7651 5.57397 37.7065ZM2.12378 60.1938H8.92847V39.7563H2.12378V60.1938ZM55.3904 40.0669C54.7927 39.7622 53.9907 39.7662 53.321 40.1704L53.322 40.1714L40.6931 48.0122L40.6824 48.019L40.6707 48.022L40.0349 48.2271L40.0203 48.2319H40.0046L28.5398 48.2466H28.532L28.5242 48.2446C27.9459 48.1527 27.6682 47.6871 27.6531 47.2349C27.6386 46.7987 27.8695 46.3375 28.3435 46.2339L28.3542 46.2241H37.7273C37.8048 45.6324 37.8395 45.0005 37.7126 44.4409C37.5812 43.8613 37.28 43.3643 36.6814 43.0659C32.8404 42.3608 28.9198 41.9376 25.03 41.4312C23.5757 41.2421 22.3137 40.9536 20.9041 41.3765L20.6199 41.4702L10.95 44.9556V57.0356L36.655 57.0376C37.539 56.9581 38.3656 56.7535 39.1658 56.3804C41.2002 54.8837 43.3497 53.4433 45.4783 51.9849C47.6108 50.5237 49.724 49.0441 51.6863 47.4683C52.4926 46.8208 53.555 45.9294 54.4558 44.936C55.3592 43.9397 56.0876 42.8545 56.2478 41.8208L56.2664 41.6655C56.3287 40.902 55.9461 40.3503 55.3904 40.0669Z" fill="#548B81" stroke="#548B81" stroke-width="0.2"/>
<path d="M5.51587 42.0098C7.21436 42.0098 8.5908 43.3892 8.59106 45.0908C8.59106 46.7926 7.21452 48.1728 5.51587 48.1729C3.81718 48.1729 2.44067 46.7926 2.44067 45.0908C2.44093 43.3892 3.81734 42.0098 5.51587 42.0098ZM5.51587 44.0518C4.94386 44.0518 4.47902 44.5171 4.47876 45.0908C4.47876 45.6648 4.9437 46.1309 5.51587 46.1309C6.088 46.1308 6.55298 45.6647 6.55298 45.0908C6.55272 44.5165 6.08788 44.0518 5.51587 44.0518Z" fill="#548B81" stroke="#548B81" stroke-width="0.2"/>
</svg>
